<svg width="342" height="229" viewBox="0 0 342 428" fill="none" xmlns="http://www.w3.org/2000/svg">
<path fill-rule="evenodd" clip-rule="evenodd" d="M163.885 1.32002C161.897 2.06302 158.972 3.61502 157.385 4.76902C155.798 5.92302 120.658 40.759 79.295 82.183C21.345 140.219 3.626 158.532 2.067 162C-4.607 176.844 5.67501 193.052 21.718 192.978C31.428 192.933 31.718 192.684 92.239 132.226L148.977 75.547L149.239 244.023L149.5 412.5L152.277 417.223C156.322 424.105 162.546 427.51 171 427.466C178.084 427.43 181.757 425.971 186.364 421.364C193.026 414.701 192.473 430.041 192.761 244.023L193.023 75.547L249.761 132.226C310.282 192.684 310.572 192.933 320.282 192.978C336.325 193.052 346.607 176.844 339.933 162C338.373 158.532 320.553 140.118 262.205 81.684C220.567 39.985 184.609 4.74202 182.297 3.36702C177.178 0.320019 168.993 -0.589982 163.885 1.32002Z" fill="white"/>
</svg>
