<svg width="511" height="512" viewBox="0 0 511 512" fill="none" xmlns="http://www.w3.org/2000/svg">
<path fill-rule="evenodd" clip-rule="evenodd" d="M229.949 0.233755C162.804 7.45375 102.007 39.6278 59.225 90.5828C29.16 126.391 10.479 166.992 2.185 214.553C0.283 225.463 0 230.768 0 255.583C0 280.398 0.283 285.703 2.185 296.613C11.595 350.574 34.119 395.248 71.431 433.957C109.778 473.739 158.038 499.015 214.419 508.847C225.329 510.749 230.634 511.032 255.449 511.032C286.788 511.032 296.186 509.968 320.705 503.646C408.887 480.909 480.774 409.027 503.508 320.854C509.834 296.319 510.898 286.926 510.898 255.583C510.898 230.768 510.615 225.463 508.713 214.553C498.889 158.216 473.574 109.882 433.823 71.5648C395.249 34.3828 350.184 11.6138 297.004 2.43675C287.383 0.776755 279.801 0.300755 259.449 0.0807547C245.424 -0.0712453 232.149 -0.00224531 229.949 0.233755ZM286.449 42.0708C335.035 49.9188 373.327 69.3618 407.499 103.533C437.23 133.265 456.898 168.365 465.8 207.583C472.81 238.467 472.81 272.699 465.8 303.583C453.724 356.784 420.5 404.21 372.752 436.407C354.347 448.817 326.402 460.724 303.449 465.934C272.565 472.944 238.333 472.944 207.449 465.934C154.248 453.858 106.822 420.634 74.625 372.886C62.215 354.481 50.308 326.536 45.098 303.583C38.088 272.699 38.088 238.467 45.098 207.583C54 168.365 73.668 133.265 103.399 103.533C141.134 65.7988 184.207 45.8128 239.949 40.1768C247.87 39.3758 277.148 40.5678 286.449 42.0708ZM246.949 179.503C241.318 182.144 141.103 282.668 138.984 287.801C135.134 297.126 138.441 307.814 146.773 312.975C150.622 315.358 152.485 315.851 157.384 315.782C160.768 315.734 164.752 314.982 166.638 314.035C168.459 313.121 189.153 293.223 212.625 269.817L255.301 227.262L299.125 270.542C326.106 297.188 344.294 314.401 346.449 315.327C353.651 318.422 364.88 316.292 369.578 310.939C374.193 305.682 375.928 295.667 373.396 288.898C371.826 284.699 268.897 181.816 263.949 179.5C258.842 177.109 252.051 177.11 246.949 179.503Z" fill="white"/>
</svg>
